
<svg width="421" height="578" viewBox="0 0 421 578" fill="none" xmlns="http://www.w3.org/2000/svg">
<path d="M250.541 338.311L185.53 284.105C183.007 282.002 182.667 278.251 184.771 275.728L300.454 136.984" stroke="#E4B589" stroke-opacity="0.05" stroke-width="23.7921" stroke-linecap="round"/>
<path d="M322.194 203.088L268.867 267.043C266.758 269.572 267.105 273.333 269.641 275.433L408.279 390.253" stroke="#E4B589" stroke-opacity="0.05" stroke-width="23.7921" stroke-linecap="round"/>
<path d="M76.4584 407.904L130.664 342.893C132.768 340.37 136.518 340.03 139.041 342.134L277.785 457.817" stroke="#E4B589" stroke-opacity="0.05" stroke-width="23.7921" stroke-linecap="round"/>
<path d="M211.682 479.56L147.728 426.233C145.199 424.124 141.438 424.471 139.337 427.007L24.5176 565.645" stroke="#E4B589" stroke-opacity="0.05" stroke-width="23.7921" stroke-linecap="round"/>
<path d="M11.3811 239.616L76.3919 293.821C78.915 295.925 79.2549 299.676 77.1512 302.199L-38.5324 440.943" stroke="#E4B589" stroke-opacity="0.05" stroke-width="23.7921" stroke-linecap="round"/>
<path d="M-60.2742 374.839L-6.94711 310.884C-4.83842 308.355 -5.18553 304.594 -7.72147 302.494L-146.359 187.674" stroke="#E4B589" stroke-opacity="0.05" stroke-width="23.7921" stroke-linecap="round"/>
<path d="M185.462 170.022L131.256 235.033C129.152 237.556 125.402 237.896 122.879 235.792L-15.8655 120.108" stroke="#E4B589" stroke-opacity="0.05" stroke-width="23.7921" stroke-linecap="round"/>
<path d="M50.2373 98.3667L114.192 151.694C116.721 153.802 120.482 153.455 122.582 150.919L237.402 12.2817" stroke="#E4B589" stroke-opacity="0.05" stroke-width="23.7921" stroke-linecap="round"/>
</svg>
