
<svg width="640" height="638" viewBox="0 0 640 638" fill="none" xmlns="http://www.w3.org/2000/svg">
<rect width="639.907" height="637.926" transform="translate(0.00195312)" fill="#111111"/>
<path d="M439.529 368.309L374.518 314.104C371.995 312 371.655 308.249 373.759 305.726L489.443 166.982" stroke="#E4B589" stroke-opacity="0.05" stroke-width="23.7921" stroke-linecap="round"/>
<path d="M511.182 233.087L457.855 297.042C455.747 299.571 456.094 303.332 458.63 305.432L597.267 420.252" stroke="#E4B589" stroke-opacity="0.05" stroke-width="23.7921" stroke-linecap="round"/>
<path d="M265.447 437.904L319.652 372.893C321.756 370.37 325.507 370.03 328.03 372.134L466.774 487.818" stroke="#E4B589" stroke-opacity="0.05" stroke-width="23.7921" stroke-linecap="round"/>
<path d="M400.671 509.559L336.716 456.232C334.187 454.124 330.426 454.471 328.326 457.007L213.506 595.644" stroke="#E4B589" stroke-opacity="0.05" stroke-width="23.7921" stroke-linecap="round"/>
<path d="M200.382 269.615L265.393 323.82C267.916 325.924 268.256 329.675 266.152 332.198L150.469 470.942" stroke="#E4B589" stroke-opacity="0.05" stroke-width="23.7921" stroke-linecap="round"/>
<path d="M128.727 404.839L182.054 340.884C184.163 338.355 183.815 334.594 181.28 332.494L42.6418 217.674" stroke="#E4B589" stroke-opacity="0.05" stroke-width="23.7921" stroke-linecap="round"/>
<path d="M374.462 200.022L320.257 265.033C318.153 267.556 314.403 267.896 311.88 265.792L173.135 150.108" stroke="#E4B589" stroke-opacity="0.05" stroke-width="23.7921" stroke-linecap="round"/>
<path d="M239.238 128.365L303.193 181.693C305.722 183.801 309.483 183.454 311.583 180.918L426.403 42.2805" stroke="#E4B589" stroke-opacity="0.05" stroke-width="23.7921" stroke-linecap="round"/>
</svg>
