<svg width="640" height="638" viewBox="0 0 640 638" fill="none" xmlns="http://www.w3.org/2000/svg">
<rect width="639.896" height="637.925" transform="translate(0.00195312)" fill="#F4F4F4"/>
<path d="M439.519 368.311L374.508 314.105C371.985 312.002 371.645 308.251 373.749 305.728L489.433 166.984" stroke="#8758C4" stroke-opacity="0.05" stroke-width="23.7921" stroke-linecap="round"/>
<path d="M511.173 233.088L457.846 297.043C455.737 299.572 456.084 303.333 458.62 305.433L597.258 420.253" stroke="#8758C4" stroke-opacity="0.05" stroke-width="23.7921" stroke-linecap="round"/>
<path d="M265.437 437.905L319.642 372.894C321.746 370.371 325.497 370.031 328.02 372.135L466.764 487.819" stroke="#8758C4" stroke-opacity="0.05" stroke-width="23.7921" stroke-linecap="round"/>
<path d="M400.661 509.561L336.706 456.234C334.177 454.125 330.416 454.472 328.316 457.008L213.496 595.646" stroke="#8758C4" stroke-opacity="0.05" stroke-width="23.7921" stroke-linecap="round"/>
<path d="M200.383 269.614L265.394 323.819C267.917 325.923 268.257 329.674 266.153 332.197L150.47 470.941" stroke="#8758C4" stroke-opacity="0.05" stroke-width="23.7921" stroke-linecap="round"/>
<path d="M128.728 404.836L182.055 340.882C184.164 338.353 183.816 334.592 181.28 332.491L42.6428 217.672" stroke="#8758C4" stroke-opacity="0.05" stroke-width="23.7921" stroke-linecap="round"/>
<path d="M374.463 200.02L320.258 265.03C318.154 267.553 314.404 267.893 311.881 265.79L173.136 150.106" stroke="#8758C4" stroke-opacity="0.05" stroke-width="23.7921" stroke-linecap="round"/>
<path d="M239.239 128.365L303.194 181.692C305.723 183.8 309.484 183.453 311.584 180.917L426.404 42.2795" stroke="#8758C4" stroke-opacity="0.05" stroke-width="23.7921" stroke-linecap="round"/>
</svg>
