<svg width="370" height="91" viewBox="0 0 370 91" fill="none" xmlns="http://www.w3.org/2000/svg">
<path d="M54.6915 26.6423L45.0411 36.2927C44.6506 36.6833 44.0175 36.6833 43.6269 36.2927L23.0007 15.6665" stroke="#E4B589" stroke-width="4" stroke-linecap="round"/>
<path d="M33.9627 13.1304L43.4558 22.6239C43.8472 23.0153 44.4822 23.0143 44.8723 22.6215L65.3579 2" stroke="#E4B589" stroke-width="4" stroke-linecap="round"/>
<path d="M63.3575 55.6899L53.7071 46.0396C53.3166 45.649 53.3166 45.0159 53.7071 44.6253L74.3334 23.9991" stroke="#E4B589" stroke-width="4" stroke-linecap="round"/>
<path d="M76.8696 34.961L67.3761 44.454C66.9847 44.8455 66.9857 45.4805 67.3785 45.8706L88 66.3562" stroke="#E4B589" stroke-width="4" stroke-linecap="round"/>
<path d="M35.3085 63.7131L44.9589 54.0627C45.3494 53.6722 45.9825 53.6722 46.3731 54.0627L66.9993 74.689" stroke="#E4B589" stroke-width="4" stroke-linecap="round"/>
<path d="M56.0373 77.225L46.5442 67.7316C46.1528 67.3402 45.5178 67.3412 45.1277 67.7339L24.6421 88.3555" stroke="#E4B589" stroke-width="4" stroke-linecap="round"/>
<path d="M26.6425 34.665L36.2929 44.3154C36.6834 44.7059 36.6834 45.3391 36.2929 45.7296L15.6666 66.3559" stroke="#E4B589" stroke-width="4" stroke-linecap="round"/>
<path d="M13.1304 55.394L22.6239 45.901C23.0153 45.5095 23.0143 44.8745 22.6215 44.4844L2 23.9988" stroke="#E4B589" stroke-width="4" stroke-linecap="round"/>
<path d="M107.27 64.1777V16.3668H119.186V40.1269H119.331L139.967 16.3668H154.209L134.59 38.0198L155.589 64.1777H140.113L126.452 45.5038L119.186 53.1333V64.1777H107.27ZM181.15 64.9043C167.78 64.9043 159.133 57.8562 159.133 45.6492V16.3668H171.05V45.2132C171.05 51.7527 175.482 55.0224 181.804 55.0224C188.125 55.0224 192.557 51.7527 192.557 45.2132V16.3668H203.093V45.6492C203.093 57.8562 194.519 64.9043 181.15 64.9043ZM209.307 64.1777V16.3668H221.224V54.8045H243.022V64.1777H209.307ZM249.175 64.1777V25.74H235.587V16.3668H274.606V25.74H261.091V64.1777H249.175ZM279.201 64.1777V16.3668H313.061V25.74H291.118V36.4939H308.12V43.76H291.118V54.8045H313.715V64.1777H279.201ZM341.652 64.9043C327.193 64.9043 316.003 55.6764 316.003 40.0543C316.003 24.7228 327.193 15.6401 341.652 15.6401C356.112 15.6401 367.302 24.7228 367.302 40.0543C367.302 55.6764 356.112 64.9043 341.652 64.9043ZM341.652 55.5311C349.209 55.5311 354.949 49.7908 354.949 40.1269C354.949 30.6083 349.209 25.0134 341.652 25.0134C334.095 25.0134 328.355 30.6083 328.355 40.1269C328.355 49.7908 334.095 55.5311 341.652 55.5311Z" fill="#F5EEEE"/>
</svg>
