<svg width="421" height="578" viewBox="0 0 421 578" fill="none" xmlns="http://www.w3.org/2000/svg">
<path d="M250.541 338.311L185.53 284.105C183.007 282.002 182.667 278.251 184.771 275.728L300.454 136.984" stroke="#8758C4" stroke-opacity="0.05" stroke-width="23.7921" stroke-linecap="round"/>
<path d="M322.194 203.088L268.867 267.043C266.758 269.572 267.105 273.333 269.641 275.433L408.279 390.253" stroke="#8758C4" stroke-opacity="0.05" stroke-width="23.7921" stroke-linecap="round"/>
<path d="M76.4584 407.904L130.664 342.893C132.768 340.37 136.518 340.03 139.041 342.134L277.785 457.817" stroke="#8758C4" stroke-opacity="0.05" stroke-width="23.7921" stroke-linecap="round"/>
<path d="M211.682 479.56L147.728 426.233C145.199 424.124 141.438 424.471 139.337 427.007L24.5176 565.645" stroke="#8758C4" stroke-opacity="0.05" stroke-width="23.7921" stroke-linecap="round"/>
<path d="M11.385 239.616L76.3958 293.821C78.9189 295.925 79.2588 299.676 77.1551 302.199L-38.5285 440.943" stroke="#8758C4" stroke-opacity="0.05" stroke-width="23.7921" stroke-linecap="round"/>
<path d="M-60.2703 374.838L-6.94321 310.884C-4.83452 308.355 -5.18163 304.594 -7.71757 302.493L-146.355 187.674" stroke="#8758C4" stroke-opacity="0.05" stroke-width="23.7921" stroke-linecap="round"/>
<path d="M185.465 170.021L131.26 235.032C129.156 237.555 125.406 237.895 122.882 235.792L-15.8616 120.108" stroke="#8758C4" stroke-opacity="0.05" stroke-width="23.7921" stroke-linecap="round"/>
<path d="M50.2412 98.3665L114.196 151.694C116.725 153.802 120.486 153.455 122.586 150.919L237.406 12.2814" stroke="#8758C4" stroke-opacity="0.05" stroke-width="23.7921" stroke-linecap="round"/>
</svg>
